<?xml version="1.0" encoding="iso-8859-1"?>
<!-- Generator: Adobe Illustrator 19.0.0, SVG Export Plug-In . SVG Version: 6.00 Build 0)  -->
<svg version="1.1" id="Capa_1" xmlns="http://www.w3.org/2000/svg" xmlns:xlink="http://www.w3.org/1999/xlink" x="0px" y="0px"
	 viewBox="0 0 387.25 387.25" style="enable-background:new 0 0 387.25 387.25;" xml:space="preserve">
<path style="fill:#ED664C;" d="M323.525,63.737c71.7,71.8,71.7,188.1,0,259.9c-71.8,71.7-188.1,71.7-259.9,0
	c-71.7-71.8-71.7-188.1,0-259.9C135.425-8.063,251.825-8.063,323.525,63.737z M225.325,193.637l59.6-59.6l-31.7-31.7l-59.6,59.6
	l-59.6-59.6l-31.7,31.7l59.6,59.6l-59.6,59.6l31.7,31.7l59.6-59.6l59.6,59.6l31.7-31.7L225.325,193.637z"/>
<polygon style="fill:#FDC75B;" points="284.925,134.037 225.325,193.637 284.925,253.238 253.225,284.938 193.625,225.338 
	134.025,284.938 102.325,253.238 161.925,193.637 102.325,134.037 134.025,102.337 193.625,161.938 253.225,102.337 "/>
<path d="M193.625,387.237c49.6,0,99.2-18.9,137-56.6c75.5-75.5,75.5-198.5,0-274l0,0c-75.5-75.5-198.5-75.5-274,0s-75.5,198.5,0,274
	C94.425,368.438,144.025,387.237,193.625,387.237z M70.725,70.738c33.9-33.8,78.4-50.7,122.9-50.7s89,16.9,122.9,50.8
	c67.7,67.8,67.7,178,0,245.7c-67.8,67.7-178,67.7-245.7,0C3.025,248.738,3.025,138.537,70.725,70.738z"/>
<path d="M95.225,260.237l31.7,31.7c3.9,3.9,10.2,3.9,14.1,0l52.5-52.5l52.5,52.5c2,2,4.5,2.9,7.1,2.9s5.1-1,7.1-2.9l31.7-31.7
	c3.9-3.9,3.9-10.2,0-14.1l-52.4-52.5l52.5-52.5c3.9-3.9,3.9-10.2,0-14.1l-31.7-31.7c-3.9-3.9-10.2-3.9-14.1,0l-52.6,52.4l-52.5-52.5
	c-3.9-3.9-10.2-3.9-14.1,0l-31.7,31.7c-3.9,3.9-3.9,10.2,0,14.1l52.5,52.5l-52.5,52.5C91.325,250.037,91.325,256.338,95.225,260.237
	z M168.925,200.738c3.9-3.9,3.9-10.2,0-14.1l-52.5-52.5l17.6-17.6l52.5,52.5c3.9,3.9,10.2,3.9,14.1,0l52.5-52.5l17.6,17.6
	l-52.5,52.5c-3.9,3.9-3.9,10.2,0,14.1l52.5,52.5l-17.6,17.6l-52.5-52.5c-2-2-4.5-2.9-7.1-2.9s-5.1,1-7.1,2.9l-52.5,52.5l-17.6-17.6
	L168.925,200.738z"/>
<g>
</g>
<g>
</g>
<g>
</g>
<g>
</g>
<g>
</g>
<g>
</g>
<g>
</g>
<g>
</g>
<g>
</g>
<g>
</g>
<g>
</g>
<g>
</g>
<g>
</g>
<g>
</g>
<g>
</g>
</svg>
