<svg viewBox="0 0 512 512" xmlns="http://www.w3.org/2000/svg"><g fill="#ff9f00"><path d="m467 30h-242c-24.902344 0-45 20.097656-45 45 0 24.898438 20.097656 45 45 45h242c24.902344 0 45-20.101562 45-45 0-24.902344-20.097656-45-45-45zm0 0"/><path d="m467 211h-242c-24.902344 0-45 20.097656-45 45 0 24.898438 20.097656 45 45 45h242c24.902344 0 45-20.101562 45-45 0-24.902344-20.097656-45-45-45zm0 0"/><path d="m467 392h-242c-24.902344 0-45 20.097656-45 45 0 24.898438 20.097656 45 45 45h242c24.902344 0 45-20.101562 45-45 0-24.902344-20.097656-45-45-45zm0 0"/><path d="m135 362h-120c-8.402344 0-15 6.597656-15 15v120c0 8.398438 6.597656 15 15 15h120c8.402344 0 15-6.601562 15-15v-120c0-8.402344-6.597656-15-15-15zm0 0"/><path d="m135 180h-120c-8.402344 0-15 6.597656-15 15v122c0 8.398438 6.597656 15 15 15h120c8.402344 0 15-6.601562 15-15v-122c0-8.402344-6.597656-15-15-15zm0 0"/><path d="m135 0h-120c-8.402344 0-15 6.597656-15 15v120c0 8.398438 6.597656 15 15 15h120c8.402344 0 15-6.601562 15-15v-120c0-8.402344-6.597656-15-15-15zm0 0"/></g><path d="m512 437c0 24.898438-20.097656 45-45 45h-121v-90h121c24.902344 0 45 20.097656 45 45zm0 0" fill="#ff7816"/><path d="m512 256c0 24.898438-20.097656 45-45 45h-121v-90h121c24.902344 0 45 20.097656 45 45zm0 0" fill="#ff7816"/><path d="m467 120h-121v-90h121c24.902344 0 45 20.097656 45 45 0 24.898438-20.097656 45-45 45zm0 0" fill="#ff7816"/><path d="m150 15v120c0 8.398438-6.597656 15-15 15h-60v-150h60c8.402344 0 15 6.597656 15 15zm0 0" fill="#ff7816"/><path d="m150 195v122c0 8.398438-6.597656 15-15 15h-60v-152h60c8.402344 0 15 6.597656 15 15zm0 0" fill="#ff7816"/><path d="m150 377v120c0 8.398438-6.597656 15-15 15h-60v-150h60c8.402344 0 15 6.597656 15 15zm0 0" fill="#ff7816"/></svg>